Coordinates
version=1
nRows=26
nColumns=24
inDegrees=yes

Units are S.I. units (second, meters, Newtons, ...)
Angles are in degrees.

endheader
time	pelvis_tilt	pelvis_list	pelvis_rotation	pelvis_tx	pelvis_ty	pelvis_tz	hip_flexion_r	hip_adduction_r	hip_rotation_r	knee_angle_r	ankle_angle_r	subtalar_angle_r	mtp_angle_r	hip_flexion_l	hip_adduction_l	hip_rotation_l	knee_angle_l	ankle_angle_l	subtalar_angle_l	mtp_angle_l	lumbar_extension	lumbar_bending	lumbar_rotation
      3.58500000	    -19.28398557	     11.93926396	     -6.95876092	     -2.28883158	     -0.04930475	     -0.31991628	     16.23672123	    -10.20862034	      1.54581746	    -56.47003799	    -41.39255547	     -9.89533911	     21.97883539	     46.74268592	     12.47677357	     -0.77728413	    -28.63632476	     15.67241368	     11.15374743	    -73.54046363	     13.31376675	    -10.56157587	      8.48612755
      3.59000000	    -19.30133808	     11.91802756	     -6.87637127	     -2.28125509	     -0.04792684	     -0.32007168	     17.54256152	     -9.94165025	      1.81496771	    -58.17132650	    -40.35386296	    -11.90548498	     20.98457720	     45.99868043	     12.51171934	     -1.08766053	    -28.37636449	     16.51961469	     12.02922079	    -73.58831901	     13.33432741	    -10.50539391	      8.23763802
      3.59500000	    -19.26958788	     11.93926211	     -6.83448842	     -2.27374704	     -0.04638360	     -0.32013051	     18.83402879	     -9.68606353	      2.13119620	    -59.84479169	    -38.96418897	    -13.67763462	     19.09025437	     45.16036410	     12.56852425	     -1.40694366	    -27.99486089	     17.23424824	     12.79976589	    -73.85263461	     13.31159687	    -10.49412183	      8.05152814
      3.60000000	    -19.22948923	     11.94331089	     -6.81830223	     -2.26623664	     -0.04480587	     -0.32016377	     20.10734120	     -9.38354321	      2.50032282	    -61.38049303	    -37.63850975	    -15.30689711	     17.56508346	     44.28980225	     12.60496294	     -1.69560940	    -27.58526679	     17.97194754	     13.55075992	    -74.07556679	     13.28910428	    -10.45628634	      7.87323704
      3.60500000	    -19.16697695	     11.95267393	     -6.82016983	     -2.25874808	     -0.04311758	     -0.32013574	     21.34961543	     -9.05565175	      2.90358499	    -62.80632180	    -36.24000010	    -16.73822300	     15.83085999	     43.36316175	     12.64730631	     -1.95631618	    -27.10025195	     18.60539181	     14.21850768	    -74.33161175	     13.25020452	    -10.42539286	      7.72379248
      3.61000000	    -19.08596138	     11.96118972	     -6.83022604	     -2.25128224	     -0.04137106	     -0.32010148	     22.56454949	     -8.71276667	      3.32099144	    -64.12149313	    -34.85479427	    -17.97767696	     14.10879889	     42.39598115	     12.70706475	     -2.15586109	    -26.56954837	     19.16676271	     14.78013483	    -74.57284969	     13.19239281	    -10.39317377	      7.58453643
      3.61500000	    -18.99442022	     11.95685030	     -6.84914936	     -2.24383458	     -0.03956803	     -0.32003023	     23.75033713	     -8.33630944	      3.75809003	    -65.30994964	    -33.55334293	    -19.03802091	     12.55971614	     41.39462162	     12.76288540	     -2.29538506	    -25.99555763	     19.67128152	     15.29092403	    -74.76252785	     13.12511089	    -10.35051705	      7.45374566
      3.62000000	    -18.88373189	     11.98233737	     -6.86796635	     -2.23631992	     -0.03766457	     -0.32004454	     24.87053592	     -8.00428750	      4.23108635	    -66.29197408	    -32.55956566	    -20.08794731	     12.36674534	     40.32232192	     12.89571024	     -2.31202831	    -25.30794425	     19.99441768	     15.54890745	    -74.76410809	     13.05626815	    -10.32896317	      7.32555624
      3.62500000	    -18.79634094	     11.89692293	     -6.84668233	     -2.22889470	     -0.03582151	     -0.31990314	     26.00227423	     -7.54431927	      4.54191930	    -67.29981844	    -31.02384037	    -20.63739733	      9.89410661	     39.29975563	     12.90715856	     -2.36653236	    -24.71482475	     20.43152350	     15.99210641	    -75.03107022	     12.98153325	    -10.22623056	      7.16626250
      3.63000000	    -18.69188124	     11.83964214	     -6.85395852	     -2.22143166	     -0.03386520	     -0.31986895	     27.06819831	     -7.12514763	      4.94212570	    -68.04331839	    -30.12278434	    -21.37847467	      9.88131257	     38.19332361	     12.98825005	     -2.22796450	    -23.97533058	     20.67921243	     16.13900044	    -75.02154409	     12.90575171	    -10.13097121	      7.04369123
      3.63500000	    -18.56657726	     11.75411648	     -6.85582068	     -2.21397191	     -0.03188035	     -0.31979069	     28.07822283	     -6.68959624	      5.29943422	    -68.68669469	    -29.09380122	    -21.85033115	      9.78878720	     37.05103064	     13.04667850	     -2.08194413	    -23.21853106	     20.89878216	     16.27438391	    -75.03042539	     12.80277956	    -10.01894340	      6.91797437
      3.64000000	    -18.46111215	     11.60799799	     -6.80914506	     -2.20653123	     -0.02990427	     -0.31975135	     29.05777092	     -6.22525726	      5.55557754	    -69.20933160	    -28.02892352	    -22.17759656	      9.76219441	     35.90780442	     13.07907754	     -1.82980831	    -22.44354590	     21.08068285	     16.36163683	    -75.04431218	     12.70466579	     -9.85679701	      6.72903535
      3.64500000	    -18.39146142	     11.41426287	     -6.74628044	     -2.19915177	     -0.02795386	     -0.31962273	     30.03973456	     -5.71924807	      5.73680788	    -69.60806677	    -27.01605506	    -22.49057633	      9.90882250	     34.79172854	     13.05064731	     -1.54248210	    -21.65879178	     21.22556521	     16.49017139	    -75.04750278	     12.63241651	     -9.66456673	      6.56465901
      3.65000000	    -18.25577877	     11.23425593	     -6.66904932	     -2.19168503	     -0.02594747	     -0.31961569	     30.90921462	     -5.29446123	      5.87741870	    -69.89008918	    -25.81396075	    -22.48969105	     10.29844547	     33.55200226	     13.09060075	     -1.13820205	    -20.76959475	     21.29572546	     16.37530562	    -75.06123384	     12.49970100	     -9.48239316	      6.30019077
      3.65500000	    -18.15137774	     10.98649939	     -6.56579975	     -2.18427444	     -0.02396903	     -0.31958075	     31.75911645	     -4.81932866	      5.94558871	    -70.03198585	    -24.62760558	    -22.43787856	     10.99914329	     32.32800367	     13.06170936	     -0.64536446	    -19.86628321	     21.32938245	     16.26319975	    -75.06309069	     12.38321486	     -9.24473294	      6.04758988
      3.66000000	    -18.09547359	     10.67466592	     -6.45516332	     -2.17691506	     -0.02201764	     -0.31963777	     32.58465329	     -4.30007251	      6.02568026	    -69.90877023	    -23.95830795	    -22.69711261	     14.00402070	     31.12934768	     12.97795106	     -0.01210943	    -18.92336199	     21.28507701	     16.00810304	    -74.94041744	     12.30562518	     -8.92706692	      5.80542200
      3.66500000	    -18.00557179	     10.36824710	     -6.33582863	     -2.16954868	     -0.02012801	     -0.31957932	     33.37191944	     -3.81769375	      5.99349082	    -69.81291477	    -22.61267149	    -22.40822756	     14.97085356	     29.89260790	     12.87702731	      0.54050189	    -17.96936823	     21.25296726	     15.82361496	    -74.92604942	     12.19616761	     -8.64125200	      5.59106670
      3.67000000	    -17.99355472	      9.95631559	     -6.15340778	     -2.16227873	     -0.01828571	     -0.31965796	     34.15225765	     -3.26442080	      5.92719734	    -69.43989323	    -21.87283024	    -22.51033267	     18.10838564	     28.71099583	     12.69777709	      1.35061261	    -16.98787373	     21.13699133	     15.48696260	    -74.73549148	     12.13560017	     -8.24563907	      5.21456857
      3.67500000	    -17.92256331	      9.60311022	     -6.03594331	     -2.15498986	     -0.01651251	     -0.31956098	     34.89146703	     -2.75770409	      5.86691810	    -69.10641291	    -20.53893283	    -22.04942116	     19.37287593	     27.46570990	     12.52204542	      2.00784647	    -15.96630624	     21.02515660	     15.17711698	    -74.70565023	     12.03855158	     -7.91719041	      4.96822266
      3.68000000	    -17.89445724	      9.17794678	     -5.82206894	     -2.14774359	     -0.01481385	     -0.31960972	     35.60321384	     -2.25679084	      5.68807541	    -68.59905972	    -19.40209483	    -21.69538527	     21.23650621	     26.25464661	     12.30632279	      2.85362089	    -14.94262378	     20.85992724	     14.77831915	    -74.62180105	     11.95994972	     -7.53054801	      4.59864441
      3.68500000	    -17.89142325	      8.72885879	     -5.57798306	     -2.14054803	     -0.01322988	     -0.31965540	     36.30619094	     -1.76316419	      5.46253487	    -67.97975093	    -18.33824153	    -21.34118533	     23.19854553	     25.09753920	     12.04426077	      3.65421295	    -13.96188619	     20.70563024	     14.45817025	    -74.50475725	     11.90259764	     -7.13219988	      4.21610972
      3.69000000	    -17.90824044	      8.26415774	     -5.28451542	     -2.13338686	     -0.01176444	     -0.31971894	     36.99795504	     -1.30524403	      5.15834425	    -67.27344228	    -17.30033761	    -20.95877417	     24.89180303	     23.98365353	     11.75464217	      4.43567502	    -13.01357638	     20.56583795	     14.20814234	    -74.39523202	     11.85677134	     -6.73564573	      3.83211138
      3.69500000	    -17.97413071	      7.75454036	     -4.90228172	     -2.12628680	     -0.01044381	     -0.31975746	     37.71125486	     -0.85477475	      4.74160242	    -66.51481805	    -16.30136927	    -20.49834697	     25.76220961	     23.00470862	     11.39549205	      4.96704004	    -12.21261345	     20.54276322	     14.32596601	    -74.34958740	     11.84795994	     -6.32507508	      3.23689349
      3.70000000	    -17.97044828	      7.36239036	     -4.66955349	     -2.11915541	     -0.00913244	     -0.31983978	     38.35319775	     -0.47222548	      4.55053863	    -65.63255144	    -15.47690565	    -20.07250775	     27.56872001	     21.81535993	     11.14823771	      6.00643632	    -11.10275600	     20.18984356	     13.59754395	    -74.24747886	     11.80206835	     -5.98197153	      2.89914270
      3.70500000	    -18.00956262	      6.91432523	     -4.31244542	     -2.11209154	     -0.00797805	     -0.31992920	     38.99281200	     -0.11991592	      4.20942461	    -64.66736121	    -14.75301448	    -19.70386778	     29.09365669	     20.78994356	     10.82789718	      6.71403952	    -10.21620764	     20.01115164	     13.40979652	    -74.08316584	     11.77924833	     -5.62710879	      2.39268616
      3.71000000	    -18.06153927	      6.50099791	     -3.93794952	     -2.10504720	     -0.00697803	     -0.32001028	     39.63631053	      0.16841355	      3.85173782	    -63.65547523	    -14.10025547	    -19.37028062	     30.33994568	     19.79004170	     10.52515541	      7.47117077	     -9.33318272	     19.83667940	     13.21331849	    -73.94088854	     11.77434166	     -5.32141655	      1.96230293
